<?xml version="1.0" encoding="iso-8859-1"?>
<!-- Generator: Adobe Illustrator 18.0.0, SVG Export Plug-In . SVG Version: 6.00 Build 0)  -->
<!DOCTYPE svg PUBLIC "-//W3C//DTD SVG 1.1//EN" "http://www.w3.org/Graphics/SVG/1.1/DTD/svg11.dtd">
<svg version="1.1" id="Capa_1" xmlns="http://www.w3.org/2000/svg" xmlns:xlink="http://www.w3.org/1999/xlink" x="0px" y="0px"
	 viewBox="0 0 57 57" style="enable-background:new 0 0 57 57;" xml:space="preserve">
<g>
	<path style="fill:#DC9628;" d="M44.948,14.475c-0.825,0.092-1.617,0.483-2.184,1.17c-2.235,2.711-5.371,4.464-8.811,5.184
		c-1.86,0.389-3.603,1.393-4.9,2.982c-2.864,3.509-2.473,8.792,0.885,11.831c3.671,3.323,9.329,2.878,12.443-0.9
		c1.162-1.41,1.801-3.079,1.939-4.771c0.291-3.566,1.795-6.926,4.071-9.687C48.391,20.284,50.852,15.481,44.948,14.475z"/>
	<path style="fill:#F1B501;" d="M13,23.837c1.522-2.333,3.333-5.725,3.175-8.468c-0.065-1.122,1.136-1.865,2.102-1.291
		c4.149,2.464,9.542,8.284-1.277,19.519c-4.401,4.57-7.647,2.136-8-1.056C8.662,29.489,11.322,26.409,13,23.837z"/>
	<path style="fill:#E6E6E6;" d="M47.966,51.879H7.034c-1.825,0-3.538-0.882-4.599-2.367l-2.26-3.165
		c-0.439-0.615,0-1.469,0.756-1.469H54.07c0.755,0,1.195,0.854,0.756,1.469l-2.26,3.165C51.504,50.998,49.791,51.879,47.966,51.879z
		"/>
	<path style="fill:#F4C44E;" d="M47.491,21.473c0.286-0.406,0.583-0.805,0.9-1.189c0,0,2.461-4.803-3.443-5.81
		c-0.825,0.092-1.617,0.483-2.184,1.17c-0.48,0.582-1.009,1.111-1.566,1.604c-4.204-1.36-9.339-0.556-14.925,4.232
		c-0.618,0.53-1.666,1.65-3.123,2.198c-0.557,2.699-2.352,5.974-6.15,9.918c-4.401,4.57-7.647,2.136-8-1.056
		c-0.338-3.052,2.322-6.132,4-8.704c0.749-1.149,1.567-2.554,2.186-4.012c-0.598-0.38-1.263-0.628-2.048-0.628
		C6.829,19.197,4,23.544,4,28.906c0,0.556,0.056,1.101,0.163,1.63c0.305,1.516,0.396,3.062,0.081,4.576
		C4.084,35.882,4,36.67,4,37.472c0,1.793,0.559,3.277,1.543,4.51C6.519,41.289,7.711,40.879,9,40.879c2.611,0,4.827,1.671,5.651,4
		h0.698c0.825-2.329,3.04-4,5.651-4s4.827,1.671,5.651,4h0.698c0.825-2.329,3.04-4,5.651-4s4.827,1.671,5.651,4h0.698
		c0.825-2.329,3.04-4,5.651-4c1.789,0,3.379,0.796,4.477,2.038c2.857-1.948,4.847-4.507,5.523-7.729
		C55.865,31.066,51.054,25.444,47.491,21.473z"/>
	<path style="fill:#D2D5D7;" d="M56.47,7.923c-0.363-0.447-0.83-0.712-1.322-0.822c-0.308-0.069-0.555-0.273-0.682-0.562
		c-0.202-0.462-0.552-0.87-1.06-1.141c-0.904-0.483-2.063-0.321-2.798,0.394c-0.585,0.569-0.81,1.338-0.705,2.064
		c0.119,0.819-0.041,1.654-0.568,2.293l-3.696,4.484c2.143,0.541,2.962,1.652,3.184,2.755l3.76-4.561
		c0.527-0.639,1.316-0.956,2.143-0.996c0.733-0.035,1.445-0.403,1.892-1.086C57.178,9.886,57.117,8.719,56.47,7.923z"/>
	<path style="fill:#DC9628;" d="M44.948,14.475c-0.825,0.092-1.617,0.483-2.184,1.17c-2.235,2.711-5.371,4.464-8.811,5.184
		c-1.86,0.389-3.603,1.393-4.9,2.982c-2.864,3.509-2.473,8.792,0.885,11.831c3.671,3.323,9.329,2.878,12.443-0.9
		c1.162-1.41,1.801-3.079,1.939-4.771c0.291-3.566,1.795-6.926,4.071-9.687C48.391,20.284,50.852,15.481,44.948,14.475z"/>
	<path style="fill:#E6E6E6;" d="M47.966,51.879H7.034c-1.825,0-3.538-0.882-4.599-2.367l-2.26-3.165
		c-0.439-0.615,0-1.469,0.756-1.469H54.07c0.755,0,1.195,0.854,0.756,1.469l-2.26,3.165C51.504,50.998,49.791,51.879,47.966,51.879z
		"/>
	<path style="fill:#E6E6E6;" d="M47.966,51.879H7.034c-1.825,0-3.538-0.882-4.599-2.367l-2.26-3.165
		c-0.439-0.615,0-1.469,0.756-1.469H54.07c0.755,0,1.195,0.854,0.756,1.469l-2.26,3.165C51.504,50.998,49.791,51.879,47.966,51.879z
		"/>
	<path style="fill:#E6E6E6;" d="M47.966,51.879H7.034c-1.825,0-3.538-0.882-4.599-2.367l-2.26-3.165
		c-0.439-0.615,0-1.469,0.756-1.469H54.07c0.755,0,1.195,0.854,0.756,1.469l-2.26,3.165C51.504,50.998,49.791,51.879,47.966,51.879z
		"/>
	<g>
		<path style="fill:#659C35;" d="M26.651,44.879c-0.825-2.329-3.04-4-5.651-4s-4.827,1.671-5.651,4H26.651z"/>
		<path style="fill:#ED3F32;" d="M14.651,44.879c-0.825-2.329-3.04-4-5.651-4s-4.827,1.671-5.651,4H14.651z"/>
		<path style="fill:#ED3F32;" d="M38.651,44.879c-0.825-2.329-3.04-4-5.651-4s-4.827,1.671-5.651,4H38.651z"/>
		<path style="fill:#659C35;" d="M50.651,44.879c-0.825-2.329-3.04-4-5.651-4s-4.827,1.671-5.651,4H50.651z"/>
	</g>
	<path style="fill:#E6E6E6;" d="M47.966,51.879H7.034c-1.825,0-3.538-0.882-4.599-2.367l-2.26-3.165
		c-0.439-0.615,0-1.469,0.756-1.469H54.07c0.755,0,1.195,0.854,0.756,1.469l-2.26,3.165C51.504,50.998,49.791,51.879,47.966,51.879z
		"/>
	<path style="fill:#E6E6E6;" d="M47.966,51.879H7.034c-1.825,0-3.538-0.882-4.599-2.367l-2.26-3.165
		c-0.439-0.615,0-1.469,0.756-1.469H54.07c0.755,0,1.195,0.854,0.756,1.469l-2.26,3.165C51.504,50.998,49.791,51.879,47.966,51.879z
		"/>
</g>
<g>
</g>
<g>
</g>
<g>
</g>
<g>
</g>
<g>
</g>
<g>
</g>
<g>
</g>
<g>
</g>
<g>
</g>
<g>
</g>
<g>
</g>
<g>
</g>
<g>
</g>
<g>
</g>
<g>
</g>
</svg>
