<?xml version="1.0" encoding="iso-8859-1"?>
<!-- Generator: Adobe Illustrator 19.0.0, SVG Export Plug-In . SVG Version: 6.00 Build 0)  -->
<svg version="1.1" id="Layer_1" xmlns="http://www.w3.org/2000/svg" xmlns:xlink="http://www.w3.org/1999/xlink" x="0px" y="0px"
	 viewBox="0 0 512.002 512.002" style="enable-background:new 0 0 512.002 512.002;" xml:space="preserve">
<path style="fill:#E9A440;" d="M310.15,4.951c-25.207,10.903-40.793,37.857-43.883,75.896c-2.613,32.152,3.817,71.103,18.105,109.68
	c4.465,12.053,17.857,18.203,29.908,13.739c10.658-3.949,16.686-14.873,14.858-25.683l104.01-17.488
	c0.512,1.344,1.049,2.689,1.536,4.033c4.399,12.076,17.756,18.301,29.834,13.901c9.449-3.441,15.314-12.365,15.316-21.87
	c0-2.644-0.453-5.334-1.41-7.966c-2.306-6.33-4.849-12.715-7.559-18.982C430.423,36.675,361.329-17.176,310.15,4.951z"/>
<g>
	<path style="fill:#F4D853;" d="M190.537,284.373c-38.579-14.289-77.533-20.72-109.687-18.107
		c-38.043,3.092-64.997,18.678-75.896,43.886c-22.129,51.177,31.717,120.269,125.251,160.711c6.213,2.687,12.593,5.229,18.967,7.553
		c12.077,4.405,25.437-1.815,29.838-13.893c4.403-12.07-1.814-25.435-13.89-29.835c-1.347-0.49-2.689-1.026-4.036-1.538
		l17.508-104.012c10.81,1.832,21.739-4.199,25.686-14.856c0.987-2.666,1.455-5.395,1.455-8.081
		C205.733,296.743,199.927,287.85,190.537,284.373z"/>
	<path style="fill:#F4D853;" d="M490.629,147.371c-13.579-11.367-31.936-15.991-50.364-12.695l-134.919,24.149
		c-20.298,3.632-39.154,16.223-51.742,34.548c-7.278,10.593-4.588,25.083,6.008,32.36c10.596,7.277,25.083,4.586,32.361-6.008
		c0.061-0.09,0.133-0.169,0.194-0.258l157.667,105.095c-4.445,6.683-5.331,15.477-1.521,23.195
		c5.688,11.528,19.643,16.261,31.17,10.572c20.06-9.898,32.518-30.732,32.518-54.375V194.716
		C511.998,175.993,504.211,158.735,490.629,147.371z"/>
</g>
<path style="fill:#E9A440;" d="M187.498,258.024c-15.275,12.523-25.457,29.331-28.678,47.323l-24.143,134.915
	c-3.299,18.427,1.325,36.79,12.69,50.372c11.364,13.579,28.622,21.368,47.346,21.368h109.233
	c20.698,0.005,38.945-9.171,50.063-25.176c2.808-4.05,4.16-8.675,4.16-13.258c0-7.367-3.489-14.616-9.998-19.136
	c-8.101-5.628-18.517-5.376-26.242-0.192l-106.59-158.738c0.546-0.501,1.091-1.007,1.673-1.483
	c9.941-8.15,11.392-22.816,3.243-32.754C212.103,251.325,197.44,249.872,187.498,258.024z"/>
<path style="fill:#F4D853;" d="M471.653,308.523L315.281,196.908c-29.565-21.098-72.845-17.506-98.53,8.178l-15.949,15.949
	c-13.874,13.874-21.831,33.755-21.832,54.544c0,16.023,4.852,31.649,13.662,43.986l111.61,156.375
	c10.847,15.195,27.204,24.749,44.875,26.216c17.669,1.463,35.376-5.266,48.583-18.469l81.709-81.711
	c12.037-12.036,18.667-27.569,18.667-43.73C498.073,338.63,488.442,320.506,471.653,308.523z"/>
<path style="fill:#E9A440;" d="M471.653,308.523L315.281,196.908c-29.565-21.098-72.845-17.506-98.53,8.178l-7.969,7.969
	l229.774,229.772l40.85-40.852c12.037-12.036,18.667-27.569,18.667-43.73C498.073,338.63,488.442,320.506,471.653,308.523z"/>
<g>
</g>
<g>
</g>
<g>
</g>
<g>
</g>
<g>
</g>
<g>
</g>
<g>
</g>
<g>
</g>
<g>
</g>
<g>
</g>
<g>
</g>
<g>
</g>
<g>
</g>
<g>
</g>
<g>
</g>
</svg>
