<?xml version="1.0" encoding="iso-8859-1"?>
<!-- Generator: Adobe Illustrator 19.0.0, SVG Export Plug-In . SVG Version: 6.00 Build 0)  -->
<svg version="1.1" id="Layer_1" xmlns="http://www.w3.org/2000/svg" xmlns:xlink="http://www.w3.org/1999/xlink" x="0px" y="0px"
	 viewBox="0 0 373.01 373.01" style="enable-background:new 0 0 373.01 373.01;" xml:space="preserve">
<g id="XMLID_1507_">
	<circle id="XMLID_1508_" style="fill:#FF5959;" cx="284.202" cy="143.535" r="21"/>
	<circle id="XMLID_1509_" style="fill:#FF5959;" cx="31.439" cy="223.033" r="21"/>
	<circle id="XMLID_1510_" style="fill:#FF5959;" cx="346.504" cy="220.72" r="21"/>
	<g id="XMLID_1511_">
		<g id="XMLID_1512_">
			<g id="XMLID_1513_">
				<path id="XMLID_1514_" style="fill:#FFA250;" d="M284.873,176.191c0.083-1.56,0.127-3.13,0.127-4.711
					c0-48.383-39.222-87.605-87.604-87.605s-87.604,39.222-87.604,87.605c0,1.581,0.044,3.151,0.127,4.711H284.873z"/>
				<path id="XMLID_1515_" style="fill:#FFE165;" d="M254.961,176.191c0.126-1.556,0.208-3.124,0.208-4.711
					c0-31.857-25.917-57.775-57.774-57.775s-57.774,25.917-57.774,57.775c0,1.587,0.082,3.155,0.208,4.711H254.961z"/>
				<path id="XMLID_1516_" style="fill:#FFA250;" d="M224.934,176.191c0.261-1.532,0.405-3.105,0.405-4.711
					c0-15.409-12.535-27.945-27.944-27.945s-27.944,12.536-27.944,27.945c0,1.606,0.144,3.179,0.405,4.711H224.934z"/>
			</g>
			<g id="XMLID_1517_">
				<path id="XMLID_1518_" style="fill:#FFA250;" d="M232.247,242.191c0.097-1.83,0.149-3.673,0.149-5.527
					c0-56.769-46.02-102.788-102.788-102.788S26.821,179.895,26.821,236.664c0,1.854,0.052,3.697,0.149,5.527L232.247,242.191
					L232.247,242.191z"/>
				<path id="XMLID_1519_" style="fill:#FFE165;" d="M197.151,242.191c0.148-1.825,0.244-3.665,0.244-5.527
					c0-37.379-30.409-67.788-67.787-67.788s-67.787,30.409-67.787,67.788c0,1.862,0.096,3.702,0.244,5.527L197.151,242.191
					L197.151,242.191z"/>
				<path id="XMLID_1520_" style="fill:#FFA250;" d="M161.92,242.191c0.307-1.798,0.475-3.643,0.475-5.527
					c0-18.079-14.708-32.788-32.787-32.788s-32.787,14.709-32.787,32.788c0,1.885,0.169,3.729,0.475,5.527H161.92z"/>
			</g>
			<g id="XMLID_1521_">
				<path id="XMLID_1522_" style="fill:#FFA250;" d="M346.061,237.047c0.083-1.56,0.127-3.13,0.127-4.711
					c0-48.383-39.222-87.605-87.604-87.605s-87.604,39.222-87.604,87.605c0,1.581,0.044,3.151,0.127,4.711L346.061,237.047
					L346.061,237.047z"/>
				<path id="XMLID_1523_" style="fill:#FFE165;" d="M316.149,237.047c0.126-1.556,0.208-3.124,0.208-4.711
					c0-31.857-25.917-57.775-57.774-57.775s-57.774,25.917-57.774,57.775c0,1.587,0.082,3.155,0.208,4.711L316.149,237.047
					L316.149,237.047z"/>
				<path id="XMLID_1524_" style="fill:#FFA250;" d="M286.123,237.047c0.261-1.532,0.405-3.105,0.405-4.711
					c0-15.409-12.535-27.945-27.944-27.945s-27.944,12.536-27.944,27.945c0,1.606,0.144,3.179,0.405,4.711L286.123,237.047
					L286.123,237.047z"/>
			</g>
		</g>
		<path id="XMLID_1525_" style="fill:#5FD2DB;" d="M341.949,289.135H31.06c-4.488,0-8.614-2.466-10.74-6.419l-18.849-35.05
			c-4.369-8.124,1.516-17.969,10.74-17.969h348.587c9.224,0,15.108,9.845,10.74,17.969l-18.849,35.051
			C350.563,286.67,346.437,289.135,341.949,289.135z"/>
	</g>
</g>
<g>
</g>
<g>
</g>
<g>
</g>
<g>
</g>
<g>
</g>
<g>
</g>
<g>
</g>
<g>
</g>
<g>
</g>
<g>
</g>
<g>
</g>
<g>
</g>
<g>
</g>
<g>
</g>
<g>
</g>
</svg>
